<svg width="18" height="16" viewBox="0 0 18 16" fill="none" xmlns="http://www.w3.org/2000/svg">
<path d="M11.0625 0.625C9.93156 0.625 9 1.55656 9 2.6875H4.875V10.9375H17.25V2.6875H13.125C13.125 1.55656 12.1934 0.625 11.0625 0.625ZM0.75 1.3125V2.6875H1.4375C1.81906 2.6875 2.125 2.99344 2.125 3.375V10.9375C2.125 12.4569 3.35562 13.6875 4.875 13.6875H17.25V12.3125H4.875C4.05619 12.3125 3.5 11.7563 3.5 10.9375V3.375C3.5 2.24406 2.56844 1.3125 1.4375 1.3125H0.75ZM14.8438 13.6875C14.5702 13.6875 14.3079 13.7962 14.1145 13.9895C13.9212 14.1829 13.8125 14.4452 13.8125 14.7188C13.8125 14.9923 13.9212 15.2546 14.1145 15.448C14.3079 15.6413 14.5702 15.75 14.8438 15.75C15.1173 15.75 15.3796 15.6413 15.573 15.448C15.7663 15.2546 15.875 14.9923 15.875 14.7188C15.875 14.4452 15.7663 14.1829 15.573 13.9895C15.3796 13.7962 15.1173 13.6875 14.8438 13.6875ZM6.59375 13.6875C6.32025 13.6875 6.05794 13.7962 5.86455 13.9895C5.67115 14.1829 5.5625 14.4452 5.5625 14.7188C5.5625 14.9923 5.67115 15.2546 5.86455 15.448C6.05794 15.6413 6.32025 15.75 6.59375 15.75C6.86725 15.75 7.12956 15.6413 7.32295 15.448C7.51635 15.2546 7.625 14.9923 7.625 14.7188C7.625 14.4452 7.51635 14.1829 7.32295 13.9895C7.12956 13.7962 6.86725 13.6875 6.59375 13.6875ZM11.0625 2C11.4441 2 11.75 2.30594 11.75 2.6875H10.375C10.375 2.30594 10.6809 2 11.0625 2ZM6.25 4.0625H15.875V9.5625H6.25V4.0625Z" fill="black"/>
</svg>
