<svg width="20" height="18" viewBox="0 0 20 18" fill="none" xmlns="http://www.w3.org/2000/svg">
<path d="M5.53125 0.9375C2.68706 0.9375 0.375 3.27638 0.375 6.09375C0.375 7.07687 0.8205 7.928 1.23438 8.54331C1.47819 8.90772 1.75904 9.24594 2.07244 9.55256L9.505 17.0078L9.99931 17.5021L10.4936 17.0078L17.9269 9.55256C17.9269 9.55256 19.625 8.05656 19.625 6.09375C19.625 3.27638 17.3129 0.9375 14.4688 0.9375C12.1079 0.9375 10.5878 2.35788 10 2.95738C9.41219 2.35788 7.89213 0.9375 5.53125 0.9375ZM5.53125 2.3125C7.5855 2.3125 9.48438 4.31038 9.48438 4.31038L10 4.89062L10.5156 4.31038C10.5156 4.31038 12.4145 2.3125 14.4688 2.3125C16.5608 2.3125 18.25 4.0285 18.25 6.09375C18.25 7.15456 16.9609 8.58594 16.9609 8.58594L10 15.5469L3.03906 8.58594C3.03906 8.58594 2.70631 8.26625 2.37288 7.76919C2.04013 7.2735 1.75 6.62587 1.75 6.09375C1.75 4.0285 3.43919 2.3125 5.53125 2.3125Z" fill="black"/>
</svg>
