<svg width="16" height="17" viewBox="0 0 16 17" fill="none" xmlns="http://www.w3.org/2000/svg">
<path d="M9.77892 0.5C6.34986 0.5 3.55784 3.29191 3.55784 6.72084C3.55784 8.21073 4.08041 9.57621 4.95758 10.6481L0 15.6042L0.895214 16.5L5.85217 11.5426C6.95924 12.4502 8.34736 12.9448 9.77892 12.9417C13.208 12.9417 16 10.1498 16 6.72084C16 3.29191 13.208 0.5 9.77892 0.5ZM9.77892 1.74417C12.5349 1.74417 14.7558 3.96501 14.7558 6.72084C14.7558 9.47667 12.5349 11.6975 9.77892 11.6975C7.02298 11.6975 4.80205 9.47667 4.80205 6.72084C4.80205 3.96501 7.02298 1.74417 9.77892 1.74417Z" fill="#111111"/>
</svg>
