<svg width="20" height="17" viewBox="0 0 20 17" fill="none" xmlns="http://www.w3.org/2000/svg">
<path d="M5.53125 0.4375C2.68706 0.4375 0.375 2.77638 0.375 5.59375C0.375 6.57687 0.8205 7.428 1.23438 8.04331C1.47819 8.40772 1.75904 8.74594 2.07244 9.05256L9.505 16.5078L9.99931 17.0021L10.4936 16.5078L17.9269 9.05256C17.9269 9.05256 19.625 7.55656 19.625 5.59375C19.625 2.77638 17.3129 0.4375 14.4688 0.4375C12.1079 0.4375 10.5878 1.85788 10 2.45738C9.41219 1.85788 7.89213 0.4375 5.53125 0.4375ZM5.53125 1.8125C7.5855 1.8125 9.48438 3.81038 9.48438 3.81038L10 4.39062L10.5156 3.81038C10.5156 3.81038 12.4145 1.8125 14.4688 1.8125C16.5608 1.8125 18.25 3.5285 18.25 5.59375C18.25 6.65456 16.9609 8.08594 16.9609 8.08594L10 15.0469L3.03906 8.08594C3.03906 8.08594 2.70631 7.76625 2.37288 7.26919C2.04013 6.7735 1.75 6.12587 1.75 5.59375C1.75 3.5285 3.43919 1.8125 5.53125 1.8125Z" fill="#8C907E"/>
</svg>
